<svg width="264" height="417" viewBox="0 0 264 417" fill="none" xmlns="http://www.w3.org/2000/svg">
<path fill-rule="evenodd" clip-rule="evenodd" d="M216.695 -180.428C263.742 -174.005 273.328 -102.243 316.289 -82.0231C365.56 -58.8331 451.282 -107.688 475.186 -58.7672C500.024 -7.93735 421.706 37.9682 400.561 90.441C388.433 120.537 381.28 151.095 377.628 183.336C371.006 241.774 403.772 308.181 370.403 356.615C338.64 402.718 272.674 418.231 216.695 416.925C161.061 415.627 94.4146 397.997 67.073 349.539C37.2084 296.609 92.2187 229.671 77.74 170.65C68.9115 134.66 13.5304 126.118 3.51341 90.441C-6.85472 53.5137 7.4474 13.8117 23.988 -20.7948C41.3034 -57.0222 69.1302 -85.9266 100.054 -111.543C135.429 -140.847 171.178 -186.642 216.695 -180.428Z" fill="#E76F51"/>
</svg>
