<svg width="323" height="314" viewBox="0 0 323 314" fill="none" xmlns="http://www.w3.org/2000/svg">
<path fill-rule="evenodd" clip-rule="evenodd" d="M1.40024 3.42901C59.4251 -18.3593 102.511 69.5529 155.406 101.86C206.761 133.226 278.909 138.901 308.756 191.154C338.604 243.407 312.217 308.593 307.777 368.606C303.655 424.305 318.398 487.854 283.571 531.517C248.723 575.207 178.927 564.336 130.047 591.428C82.3513 617.864 54.1009 673.9 1.40024 687.913C-56.2815 703.251 -135.587 718.008 -173.909 672.249C-217.375 620.348 -148.001 532.935 -178.854 472.676C-207.137 417.439 -315.552 429.102 -329.379 368.606C-341.928 313.705 -278.903 266.429 -233.659 232.894C-195.35 204.501 -131.848 230.22 -97.7276 196.911C-44.9745 145.413 -67.6164 29.3447 1.40024 3.42901Z" fill="#E9C46A"/>
</svg>
